<svg width="237" height="164" viewBox="0 0 237 164" fill="none" xmlns="http://www.w3.org/2000/svg">
<path fill-rule="evenodd" clip-rule="evenodd" d="M215.583 102.774V163.292H110.917V102.774H215.583ZM110.686 9.60907C109.608 9.78932 108.53 10.0146 107.471 10.2625C103.851 11.1145 100.316 12.4058 96.9238 14.1152C93.5653 15.807 90.3443 17.8506 87.3001 20.2211C84.3316 22.5573 81.566 25.2287 79.043 28.197C77.2527 30.3156 75.5872 32.5739 74.058 34.9563H91.2266C96.8617 25.6622 103.391 17.1573 110.686 9.60907ZM49.7487 86.214L37.4112 90.4948C38.8932 109.759 46.1494 122.849 60.7581 129.541C36.0253 136.3 19.3187 121.024 12.8324 99.2143L0.244629 103.675L17.5672 66.2291L49.7487 86.214ZM212.869 83.9609L186.193 56.2029L198.8 55.3918C201.186 36.6461 196.875 22.2489 184.306 11.8622C209.155 12.1551 222.031 31.1936 223.898 53.6794L236.755 52.8232L212.869 83.9609ZM98.7138 114.423H96.9238C97.5012 115.324 98.0979 116.203 98.7138 117.104V126.882C95.6147 122.973 92.7588 118.809 90.168 114.423H73.9233C75.4838 116.808 77.1815 119.067 79.0045 121.182C81.5275 124.15 84.2931 126.822 87.2616 129.158C90.3058 131.528 93.5268 133.572 96.8853 135.264H97.0393L98.6753 136.03V145.042C97.1932 144.456 95.7112 143.803 94.2484 143.082H94.0559C90.2941 141.219 86.6861 138.957 83.2775 136.323C76.5433 131.023 70.7518 124.243 66.2243 116.36C63.974 112.37 62.0412 108.147 60.4502 103.743C58.8076 99.224 57.563 94.5208 56.7354 89.7062C55.0929 79.8859 55.0929 69.7859 56.7354 59.9655C57.5459 55.2296 58.7648 50.6021 60.3732 46.1541V45.9288C61.9642 41.5252 63.897 37.3017 66.1474 33.3115C68.4071 29.3804 70.9853 25.7134 73.8463 22.3615C76.7 19 79.8336 15.9809 83.2005 13.3492C86.6014 10.6683 90.2102 8.3676 93.979 6.47729C97.8797 4.51347 101.943 3.02607 106.105 2.03871C114.494 0.116004 123.122 0.116004 131.511 2.03871C135.557 2.98749 139.51 4.41424 143.31 6.29704H143.502C147.254 8.21989 150.843 10.5508 154.223 13.2591C160.962 18.5348 166.75 25.3098 171.257 33.1989C173.507 37.1893 175.44 41.4127 177.031 45.8162C178.674 50.3351 179.918 55.0383 180.746 59.8529C182.367 69.2855 182.472 78.9895 181.054 88.467H173.74V87.9038C174.304 84.6051 174.651 81.2608 174.779 77.9001H158.554C158.452 81.4556 158.072 84.9928 157.418 88.467H151.779C152.511 85.0044 152.943 81.4642 153.068 77.9001H121.503V88.467H116.036V77.9451H84.49C85.0416 88.778 88.0586 99.241 93.2283 108.249H98.7138V114.423ZM70.401 108.249H86.8575C82.1651 99.0529 79.4811 88.6447 79.043 77.9451H62.7021C62.8377 81.3138 63.1916 84.6655 63.7607 87.9714C64.4882 92.207 65.5847 96.3443 67.0327 100.318C68.0326 103.039 69.1702 105.687 70.4395 108.249H70.401ZM62.7021 71.5013H79.1585C79.9828 60.8117 82.9005 50.4883 87.6851 41.3325H70.3625C69.1127 43.8495 67.9944 46.4529 67.0135 49.1282V49.331C65.5895 53.2279 64.4998 57.2808 63.7607 61.43C63.2033 64.7293 62.8623 68.0736 62.7406 71.4337L62.7021 71.5013ZM84.6248 71.5013H116.036V41.3325H94.0944C88.8586 50.3194 85.6052 60.6841 84.6248 71.5013ZM152.953 71.5013C151.972 60.6841 148.719 50.3194 143.483 41.3325H121.503V71.5013H152.953ZM158.457 71.5013H174.875C174.75 68.118 174.403 64.7509 173.836 61.43C173.118 57.187 172.028 53.0419 170.583 49.0606C169.595 46.3894 168.477 43.7866 167.234 41.2649H149.912C154.72 50.4343 157.645 60.7845 158.457 71.5013ZM97.9439 34.8887H116.036V12.6507C109.386 19.3374 103.325 26.7872 97.9439 34.8887ZM139.614 34.8887C134.228 26.785 128.16 19.335 121.503 12.6507V34.8887H139.614ZM146.389 34.8887H163.558C162.028 32.5006 160.355 30.2419 158.554 28.1294C156.057 25.177 153.317 22.5204 150.374 20.1986C147.327 17.8394 144.106 15.8035 140.75 14.1152H140.577C137.233 12.4465 133.75 11.1929 130.183 10.3751C129.125 10.1273 128.066 9.90198 126.988 9.72173C134.254 17.2176 140.763 25.6614 146.389 34.8887ZM154.377 127.085C155.414 124.647 157.045 122.624 159.065 121.272C161.084 119.92 163.401 119.299 165.722 119.488C168.043 119.678 170.263 120.668 172.103 122.336C173.943 124.003 175.319 126.271 176.057 128.854C176.795 131.436 176.862 134.217 176.25 136.845C175.637 139.472 174.373 141.828 172.617 143.614C170.86 145.4 168.691 146.536 166.383 146.878C164.075 147.221 161.732 146.754 159.651 145.538C158.268 144.733 157.035 143.617 156.021 142.253C155.008 140.89 154.234 139.306 153.744 137.592C153.254 135.878 153.058 134.068 153.167 132.265C153.275 130.462 153.686 128.702 154.377 127.085ZM127.662 111.719L198.684 112.282C198.734 114.633 199.568 116.868 201.006 118.51C202.445 120.151 204.374 121.07 206.383 121.069L206.691 144.997C204.679 145.05 202.765 146.023 201.359 147.707C199.952 149.392 199.165 151.654 199.165 154.009L128.124 153.446C128.078 151.091 127.247 148.851 125.808 147.204C124.369 145.557 122.437 144.636 120.425 144.636L120.117 120.731C122.132 120.684 124.051 119.714 125.461 118.029C126.872 116.344 127.662 114.078 127.662 111.719Z" fill="#43B14B"/>
</svg>
