<svg width="180" height="186" viewBox="0 0 180 186" fill="none" xmlns="http://www.w3.org/2000/svg">
<path fill-rule="evenodd" clip-rule="evenodd" d="M70.8222 71.5407L160.802 87.8856L94.8951 42.3912C93.253 43.3553 91.3549 43.988 89.4116 44.1688C87.3478 44.3646 85.2087 44.0784 83.2503 43.2046L16.3645 80.8505V177.097L1.7972 174.611C1.25488 174.521 0.802946 174.159 0.802946 173.617V83.532C0.426337 81.8146 1.20968 79.9768 2.83664 79.088L77.3601 37.1036C76.3357 34.7385 75.8236 31.7406 76.0646 28.0197L82.9038 28.4415C82.723 31.2134 83.0846 33.232 83.7775 34.6481C84.9375 34.874 85.992 35.5821 86.5946 36.6968C86.685 36.8776 86.7754 37.0584 86.8356 37.2391C87.3779 37.3747 87.9504 37.4199 88.5078 37.3898C87.86 36.1093 87.9203 34.5125 88.794 33.2471C89.6075 32.057 90.9482 31.4394 92.304 31.4845C92.063 31.1983 91.7918 30.9724 91.5357 30.7464C89.743 29.1646 88.0106 27.6281 87.5587 22.5664L87.5436 22.5514L87.4985 22.0994C84.2144 20.7888 81.8794 17.5651 81.8794 13.814C81.8794 10.1233 84.124 6.94468 87.3327 5.58888V0H94.187V5.57382C97.4259 6.91455 99.7157 10.0931 99.7157 13.8291C99.7157 17.4897 97.5163 20.6382 94.3527 22.0091C94.5787 24.329 95.3018 24.9767 96.055 25.6396C97.4108 26.8447 98.8118 28.08 99.7458 31.2134C100.243 32.9006 100.273 34.5125 99.9266 35.9737L177.614 89.5879C178.412 90.1452 178.954 90.9286 179.21 91.8023C179.331 91.9982 179.391 92.2241 179.391 92.4651V163.464C179.391 164.262 178.713 164.774 177.93 164.925L70.8071 184.508C70.0238 184.659 69.3459 183.846 69.3459 183.047V73.002C69.3609 72.2036 70.0238 71.4052 70.8222 71.5407ZM22.0287 77.928L38.6447 75.1562V180.893L22.0287 178.061V77.928ZM44.3089 74.2071L63.3653 71.0285C63.9076 70.9382 64.3596 71.4805 64.3596 72.0228V184.087C64.3596 184.629 63.9076 185.171 63.3653 185.081L44.3089 181.842V74.2071ZM174.239 97.4816V158.598H172.356V97.4816H174.239ZM84.5609 85.3096V172.593H78.8967V83.5621L84.5609 85.3096ZM100.032 86.7558V170.288H94.8499V86.0779L100.032 86.7558ZM113.891 89.0003V167.968H109.176V88.1266L113.891 89.0003ZM126.244 90.9286V166.266H121.996V89.9343L126.244 90.9286ZM137.633 92.7514V164.157H133.867V91.968L137.633 92.7514ZM148.148 94.077V162.545H144.849V93.3238L148.148 94.077ZM157.563 95.7944V161.083H154.731V94.9056L157.563 95.7944ZM166.33 97.2707V159.713H163.965V96.1861L166.33 97.2707Z" fill="#43B14B"/>
</svg>
