<svg width="186" height="176" viewBox="0 0 186 176" fill="none" xmlns="http://www.w3.org/2000/svg">
<path fill-rule="evenodd" clip-rule="evenodd" d="M100.553 151.451H133.559C136.211 148.815 139.118 146.073 142.071 143.286C148.262 137.426 154.725 131.31 161.368 123.657C168.961 114.905 169.774 111.877 172.079 103.305C172.516 101.693 172.998 99.8855 173.631 97.6409L177.577 83.7666L177.623 83.6159C179.732 77.4395 179.897 73.3571 179.024 71.007C178.753 70.284 178.406 69.8019 177.999 69.5458C177.683 69.3349 177.261 69.2596 176.824 69.3048C175.8 69.4102 174.64 70.058 173.585 71.2179L161.865 99.1322C161.76 99.3883 161.609 99.6294 161.444 99.8403C160.751 101.091 159.817 102.311 158.611 103.471L137.823 126.655C136.693 127.92 134.749 128.026 133.499 126.896C132.234 125.766 132.128 123.823 133.258 122.572L154.062 99.3883C154.152 99.2829 154.243 99.1774 154.348 99.0871C156.502 97.0383 157.18 94.8238 156.804 93.2119C156.683 92.7148 156.472 92.293 156.171 92.0068C155.885 91.7507 155.508 91.5699 155.041 91.5247C153.188 91.3289 150.462 92.6998 147.132 96.6316C147.042 96.737 146.937 96.8425 146.831 96.9479L138.772 104.058L138.726 104.103C130.004 112.359 126.253 114.317 119.414 117.887C117.983 118.641 116.416 119.454 114.473 120.509C113.705 120.93 112.951 121.443 112.213 122C111.43 122.603 110.677 123.22 109.969 123.823C106.353 126.866 104.455 129.336 103.37 132.063C102.241 134.895 101.834 138.345 101.276 143.075C101.05 144.988 100.885 146.871 100.749 148.754C100.644 149.658 100.599 150.562 100.553 151.451ZM33.2306 72.6039C33.2306 46.7685 57.6199 61.0796 59.4878 45.2319C59.6987 43.4995 55.6163 36.9314 54.6974 33.783C52.7089 30.6044 51.9858 25.5578 54.1701 22.1834C55.0438 20.8427 54.6672 15.9769 54.6672 14.139C54.6672 8.94181 57.1227 5.95907 60.4369 3.18722C61.6571 2.17791 61.868 0.957692 63.6306 0.520825C72.3829 -1.60325 86.7092 3.21735 86.7092 14.139C86.7092 16.4589 86.1819 20.7071 87.4323 22.5299C88.6525 24.2924 88.8031 26.8534 88.3663 29.2486C87.8842 29.6252 87.4172 30.0169 86.9502 30.4236C85.9108 31.3425 84.8713 32.382 83.8469 33.4817C83.8018 33.5269 83.7566 33.5721 83.7114 33.6173L83.6963 33.6323C83.1992 34.1144 82.8376 34.7471 82.6418 35.4551C82.2351 36.9766 82.7472 38.5433 83.8469 39.5376C82.5514 41.9479 81.3914 44.2226 81.5873 45.2319C81.9036 46.8588 83.1088 48.3502 84.8412 49.7361V49.7663C84.8412 49.8567 84.8563 49.932 84.8563 50.0224C84.9165 50.6099 85.0069 51.1823 85.1425 51.6795C85.2931 52.2368 85.504 52.7942 85.7752 53.3215C86.2271 54.2253 86.8448 55.0087 87.6281 55.6414C88.0198 55.9577 88.4416 56.2289 88.8935 56.4398C89.014 56.5754 89.1345 56.711 89.24 56.8465L89.4358 57.0725C85.8656 57.7504 83.395 58.3982 81.3161 60.462C79.0113 62.7518 78.1225 65.9605 78.1225 71.7603C78.1225 72.0465 78.1526 72.3327 78.1978 72.6039H33.2306ZM108.251 28.3598C112.635 2.50932 137.898 3.12696 141.694 30.2127C144.195 48.0489 154.875 47.4012 138.184 47.4012H131.526C131.496 51.9355 130.788 54.2555 135.503 56.8164C140.203 59.3623 152.902 60.6729 152.902 67.1204V71.2481C152.902 71.5795 152.631 71.8506 152.299 71.8506H123.014V71.7603C123.014 65.9605 122.126 62.7518 119.821 60.462C117.998 58.6543 115.889 57.9462 112.997 57.3437C113.569 57.0876 114.111 56.8013 114.623 56.5C118.766 54.0144 118.058 51.5288 118.028 47.4162H116.235C116.205 47.2053 116.175 47.0095 116.13 46.8137C115.934 45.9098 115.618 45.0361 115.151 44.2527C115.075 44.1171 114.985 43.9816 114.895 43.846V43.2434C115.452 41.1796 115.588 38.9199 115.241 36.8109C114.834 34.4458 113.81 32.2313 112.047 30.5743C111.144 29.7156 110.134 29.0829 109.035 28.646C108.763 28.5255 108.507 28.4351 108.251 28.3598ZM86.5736 36.5096C92.8404 29.5951 100.071 25.844 105.494 31.9903C106.911 32.0506 108.191 32.5326 109.245 33.5269C111.475 35.6208 111.821 39.5526 110.797 42.6559V45.3825C111.49 45.8345 111.927 46.6931 112.138 47.6573C112.273 48.2749 112.304 48.9679 112.243 49.6307C112.183 50.3086 112.002 50.9564 111.731 51.4987C111.339 52.267 110.752 52.8093 109.954 52.9147C109.17 53.7433 108.402 54.6471 107.724 55.5058C106.971 56.4549 106.338 57.3437 105.886 58.0667C105.54 58.6241 105.645 59.0007 105.781 59.4225C105.841 59.6334 105.901 59.8594 105.946 60.0854C107.317 60.3867 108.553 60.6126 109.667 60.8235C116.732 62.1492 118.932 62.5559 118.932 71.7452C118.932 72.2122 118.555 72.5888 118.088 72.5888H83.0636C82.5966 72.5888 82.22 72.2122 82.22 71.7452C82.22 62.5559 84.4043 62.1341 91.4846 60.8235C92.5993 60.6126 93.8648 60.3716 95.2356 60.0854C95.2808 59.9046 95.3411 59.7389 95.4013 59.5581C95.552 59.1514 95.6875 58.7446 95.2657 58.0667C94.8138 57.3286 94.1811 56.4398 93.4279 55.5058C92.75 54.6471 91.9817 53.7583 91.1984 52.9147C90.3999 52.7942 89.8124 52.2519 89.4208 51.4987C89.1496 50.9714 88.9839 50.3086 88.9086 49.6307C88.8483 48.9679 88.8784 48.29 89.014 47.6573C89.2099 46.6931 89.6467 45.8495 90.3397 45.3976L89.4208 44.8553C89.1647 42.1286 89.8878 37.4135 86.5736 36.5096ZM85.5793 151.451H52.5582C49.9069 148.815 46.9995 146.073 44.0469 143.286C37.8554 137.426 31.3928 131.31 24.7494 123.657C17.1569 114.905 16.3435 111.877 14.0386 103.305C13.6017 101.693 13.1197 99.8855 12.487 97.6409L8.54011 83.7666L8.49492 83.6159C6.38591 77.4395 6.2202 73.3571 7.09393 71.007C7.36509 70.284 7.71157 69.8019 8.11831 69.5458C8.43466 69.3349 8.85647 69.2596 9.29333 69.3048C10.3177 69.4102 11.4777 70.058 12.5322 71.2179L24.2523 99.1322C24.3577 99.3883 24.5084 99.6294 24.6741 99.8403C25.367 101.091 26.301 102.311 27.5062 103.471L48.295 126.655C49.4248 127.92 51.3681 128.026 52.6185 126.896C53.8688 125.766 53.9893 123.823 52.8595 122.572L32.0857 99.3582C31.9953 99.2528 31.905 99.1473 31.7995 99.0569C29.6453 97.0082 28.9674 94.7937 29.344 93.1818C29.4645 92.6847 29.6754 92.2629 29.9767 91.9767C30.2629 91.7206 30.6396 91.5398 31.1066 91.4946C32.9595 91.2988 35.7012 92.6696 39.0154 96.6014C39.0154 96.6014 39.3016 96.8876 39.3317 96.9178L47.3911 104.028L47.4363 104.073C56.1586 112.329 59.9096 114.287 66.7489 117.857C68.18 118.61 69.7467 119.424 71.69 120.478C72.4583 120.9 73.2115 121.412 73.9496 121.97C74.733 122.572 75.4862 123.19 76.1942 123.793C79.8097 126.836 81.7078 129.306 82.7924 132.033C83.9223 134.865 84.329 138.315 84.8864 143.045C85.1123 144.958 85.2781 146.841 85.4136 148.724C85.489 149.658 85.5342 150.562 85.5793 151.451ZM44.8754 152.505C44.4084 153.048 44.1222 153.756 44.1222 154.524V172.812C44.1222 174.514 45.5081 175.885 47.1953 175.885H88.7429C90.4451 175.885 91.816 174.499 91.816 172.812V154.343C91.816 152.385 91.6955 150.276 91.5599 148.317C91.4243 146.314 91.2436 144.325 91.0176 142.352C90.415 137.185 89.9631 133.404 88.5169 129.773C87.0255 126.052 84.6303 122.844 80.1863 119.093C79.3728 118.4 78.5443 117.707 77.6705 117.059C76.7516 116.366 75.7574 115.703 74.6426 115.085C72.8349 114.106 71.1477 113.217 69.6111 112.404C63.2841 109.09 59.8193 107.282 51.6694 99.5691C51.6092 99.5089 51.5339 99.4486 51.4736 99.4034L43.61 92.4587C38.8045 86.8397 34.1044 84.9717 30.504 85.3634H30.4889C28.7264 85.5442 27.2199 86.2371 26.0148 87.2916L18.0759 68.3708H18.0608C17.9403 68.0996 17.7896 67.8435 17.5938 67.6025C15.3944 64.9662 12.6075 63.4297 9.9411 63.1585C8.11831 62.9777 6.35578 63.3694 4.81921 64.3637C3.35797 65.3127 2.15282 66.789 1.3996 68.8227C0.0739345 72.3628 0.104063 77.8613 2.69514 85.4688L6.61187 99.2528C7.18432 101.241 7.68145 103.154 8.14844 104.842C10.7094 114.408 11.6132 117.797 20.1548 127.619C26.9187 135.407 33.5319 141.674 39.8891 147.685C41.5311 149.312 43.1882 150.893 44.8754 152.505ZM50.7505 157.597C51.1572 157.687 51.579 157.687 52.0008 157.597H85.6547V169.739H50.2684V157.597H50.7505ZM141.257 152.505C141.724 153.048 142.01 153.756 142.01 154.524V172.812C142.01 174.514 140.64 175.885 138.937 175.885H97.4049C95.7026 175.885 94.3317 174.499 94.3317 172.812V154.343C94.3317 154.238 94.3317 154.117 94.3468 154.012C94.392 152.038 94.4673 150.125 94.5878 148.317C94.7234 146.314 94.9042 144.325 95.1302 142.352C95.7327 137.185 96.1847 133.404 97.6309 129.773C99.1222 126.052 101.517 122.844 105.961 119.093C106.775 118.4 107.603 117.707 108.477 117.059C109.396 116.366 110.39 115.703 111.505 115.085C113.313 114.106 115 113.217 116.537 112.404C122.864 109.09 126.328 107.282 134.478 99.5691C134.539 99.5089 134.614 99.4486 134.674 99.4034L142.538 92.4587C147.343 86.8397 152.043 84.9717 155.644 85.3634H155.659C157.421 85.5442 158.928 86.2371 160.133 87.2916L168.072 68.3708H168.087C168.207 68.0996 168.358 67.8435 168.554 67.6025C170.753 64.9662 173.54 63.4297 176.207 63.1585C178.029 62.9777 179.792 63.3694 181.329 64.3637C182.79 65.3127 183.995 66.789 184.748 68.8227C186.074 72.3628 186.044 77.8613 183.453 85.4688L179.536 99.2528C178.963 101.241 178.466 103.154 177.999 104.842C175.438 114.408 174.535 117.797 165.993 127.619C159.229 135.407 152.616 141.674 146.259 147.685C144.602 149.312 142.944 150.893 141.257 152.505ZM135.382 157.597C134.975 157.687 134.554 157.687 134.132 157.597H100.478V169.739H135.864V157.597H135.382Z" fill="#43B14B"/>
</svg>
